<svg width="72" height="61" viewBox="0 0 72 61" fill="none" xmlns="http://www.w3.org/2000/svg">
<path d="M71.9004 24.2851C71.8718 23.6308 71.5073 22.4179 69.3867 21.6461L12.8493 1.08849C9.95124 0.0339872 6.73502 1.5333 5.6801 4.43154L4.1496 8.63625C4.1496 8.63625 4.14946 8.63667 4.14932 8.63695L0.706151 18.0972C-0.348629 20.9956 1.15097 24.2116 4.04962 25.2666L20.5273 31.257C20.2142 33.1616 20.7365 35.0434 21.8733 36.483L18.3632 46.1265C18.2017 46.5703 17.7755 46.8686 17.3027 46.8686H7.01875V43.5125C7.01875 41.6621 5.51328 40.1565 3.66269 40.1565H1.42533C0.807532 40.1565 0.306641 40.6573 0.306641 41.2751V59.1741C0.306641 59.7919 0.807532 60.2928 1.42533 60.2928H3.66269C5.51328 60.2928 7.01875 58.7872 7.01875 56.9367V53.5807H17.3027C20.5871 53.5807 23.548 51.5072 24.6705 48.4213L28.1068 38.9804C30.0733 38.7044 31.8604 37.5562 32.9212 35.763L52.177 42.7634C52.8064 42.9925 53.4505 43.1011 54.0845 43.1011C56.0074 43.101 57.8344 42.1014 58.8576 40.4331L61.0673 41.2372C61.3169 41.328 61.5756 41.3733 61.8336 41.3733C62.1556 41.3733 62.4766 41.3028 62.7771 41.1627C63.3184 40.9103 63.7289 40.4621 63.9331 39.9011L66.9951 31.4883C67.3675 30.4652 66.9425 29.3438 66.0401 28.8052L69.6264 27.133C71.6716 26.1793 71.9289 24.9394 71.9004 24.2851ZM4.78138 56.9367C4.78138 57.5535 4.27951 58.0554 3.66269 58.0554H2.54401V42.3938H3.66269C4.27951 42.3938 4.78138 42.8957 4.78138 43.5125V56.9367ZM22.568 47.6563C21.7658 49.8616 19.6498 51.3433 17.3027 51.3433H7.01875V49.1059H17.3027C18.7125 49.1059 19.9835 48.2162 20.4656 46.8918L23.6769 38.069C24.0454 38.2904 24.4402 38.4804 24.8594 38.6329C25.157 38.7413 25.4572 38.827 25.758 38.8921L22.568 47.6563ZM27.3095 36.8029C27.2836 36.8028 27.2579 36.8028 27.2321 36.8043C26.6994 36.8114 26.1558 36.7239 25.6246 36.5305C25.0027 36.3041 24.4604 35.9558 24.0162 35.5219C23.9755 35.4724 23.9303 35.4265 23.881 35.3844C23.0478 34.497 22.6017 33.2923 22.6862 32.0419L30.7628 34.9782C29.9456 36.1005 28.6664 36.7611 27.3095 36.8029ZM64.8929 30.7231L61.8329 39.135L59.7289 38.3692L62.6314 30.3948L63.2255 30.1178L64.8929 30.7231ZM68.6811 25.1053L62.7007 27.8939C62.7 27.8941 62.6995 27.8944 62.6989 27.8947L61.2667 28.5625C61.2662 28.5628 61.2657 28.563 61.2652 28.5632L59.586 29.3462C57.6155 30.265 54.2243 30.413 52.1806 29.6692L19.8214 17.9117C19.2409 17.701 18.599 18.0005 18.3879 18.5811C18.1769 19.1618 18.4766 19.8035 19.0573 20.0147L51.416 31.7719C52.5419 32.1818 53.9298 32.3813 55.3461 32.3813C56.8945 32.3813 58.4755 32.1415 59.7839 31.6771L57.2442 38.655C56.6113 40.394 54.6816 41.2937 52.9423 40.6607L4.81438 23.1641C3.07539 22.5312 2.17568 20.6016 2.80858 18.8626L4.72265 13.6036C5.361 14.585 6.31034 15.3752 7.49279 15.8056L8.54436 16.1882C9.12439 16.3996 9.7668 16.1001 9.97809 15.5195C10.1894 14.9391 9.88999 14.2971 9.3094 14.0858L8.25797 13.7032C6.51926 13.0703 5.61941 11.1411 6.25189 9.40227L6.63476 8.35029C6.63476 8.35029 6.6349 8.35001 6.6349 8.34987L7.78253 5.19672C8.41557 3.45772 10.3452 2.5576 12.0844 3.19092L68.6218 23.7487C69.34 24.0101 69.6057 24.2825 69.6596 24.3829C69.6146 24.4877 69.3738 24.7821 68.6811 25.1053Z" fill="url(#paint0_radial_714_5504)"/>
<path d="M15.6161 16.3812L13.5134 15.6157C12.9329 15.4041 12.2909 15.7038 12.0795 16.2843C11.8682 16.8647 12.1674 17.5067 12.748 17.7181L14.8508 18.4836C14.977 18.5296 15.1062 18.5513 15.2333 18.5513C15.6903 18.5513 16.1192 18.2691 16.2846 17.8149C16.4961 17.2346 16.1967 16.5926 15.6161 16.3812Z" fill="url(#paint1_radial_714_5504)"/>
<defs>
<radialGradient id="paint0_radial_714_5504" cx="0" cy="0" r="1" gradientUnits="userSpaceOnUse" gradientTransform="translate(33.8458 -3.36335) rotate(60.6432) scale(80.4784 448.402)">
<stop stop-color="#B3282D"/>
<stop offset="0.112105" stop-color="#B3282D"/>
<stop offset="1" stop-color="#781E20"/>
</radialGradient>
<radialGradient id="paint1_radial_714_5504" cx="0" cy="0" r="1" gradientUnits="userSpaceOnUse" gradientTransform="translate(14.0451 15.3403) rotate(55.939) scale(4.27093 25.8402)">
<stop stop-color="#B3282D"/>
<stop offset="0.112105" stop-color="#B3282D"/>
<stop offset="1" stop-color="#781E20"/>
</radialGradient>
</defs>
</svg>
